<?xml version="1.0" encoding="UTF-8"?>
<svg xmlns="http://www.w3.org/2000/svg" viewBox="0 0 1098 432">
  <defs>
    <style>
      .cls-1 {
        fill: #fff;
      }

      .cls-2 {
        fill: #690707;
      }
    </style>
  </defs>
  <g id="Calque_4">
    <polygon class="cls-1" points="1098 324 954 432 855 369 666 369 549 414 432 369 243 369 144 432 0 324 54 126 171 45 279 126 324 126 306 81 360 0 468 45 478.17 60.25 479.5 44.5 618.96 44.5 620.22 59.68 630 45 738 0 792 81 774 126 819 126 927 45 1044 126 1098 324"/>
  </g>
  <g id="Calque_5">
    <path class="cls-2" d="M470.8,143.42l-50.38-22.95,48.28-26-18.37-27.97-80-33-31,46,26.97,70.11,1.5,3.89,10.2,26.5h37.9l-14.98-38.68,67.56,30.72,2.32-28.62ZM387.77,107.38l-9.46-24.43,9.28-13.45,39.27,16.61-39.09,21.27Z"/>
    <polygon class="cls-2" points="893.2 319.02 885.41 324.89 862.68 342 783 342 789.43 315 832.75 315 822.97 207 820.82 183.17 820.53 180 748.96 180 759.17 153 877.73 153 877.74 153.1 880.3 180 847.6 180 850.03 207 859.4 310.81 890.37 287.31 893.2 319.02"/>
    <polygon class="cls-2" points="1067.5 313.5 1044.39 330.78 1017.82 234 959.46 234 957.14 207 1010.45 207 997.5 159.5 928.5 111.5 943.78 280.93 946.62 312.39 946.63 312.54 949.47 344.01 949.49 344.21 934.3 355.67 951.5 366.5 966.86 354.94 991.43 370.39 952.5 399.5 911.18 373.12 886.89 357.61 909.86 340.28 921.28 331.66 920.76 325.97 918.4 300.04 917.88 294.33 902.96 130.52 902.55 126 864.17 126 927.5 78.5 1020.5 142.5 1067.5 313.5"/>
    <polygon class="cls-2" points="187.33 340.65 210.42 357.94 145.33 399.5 106.22 370.25 30.33 313.5 77.33 142.5 170.33 78.5 227.78 121.59 233.66 126 188.23 126 169 111.68 100 159.68 61 302.68 130.26 354.83 146 366.68 162.98 355.99 147.53 343.74 171.18 328.55 187.33 340.65"/>
    <path class="cls-2" d="M727.5,33.5l-80,33-18.32,27.9,33.14,17.85,3.52,13.57-38.83,17.68,3.11,36.5h89.88l10.15-26.5,1.5-3.92,26.85-70.08-31-46ZM700.93,153l-16.15-63.15,36.96-16.05,6.27,9.11-27.08,70.09Z"/>
    <polygon class="cls-2" points="486.33 233.98 469.57 233.98 470.13 243.57 471.15 261 471.16 261.1 492.07 268.17 492.45 288 492.6 295.58 473.18 288 472.72 287.82 472.73 288 475.05 327.61 493.35 334.7 512.19 342 535.46 351.01 535.46 379.81 493.91 363.82 476.78 357.23 449.21 346.62 448.94 342 445.76 288 444.18 261 441 207 490.89 207 535.46 222.01 535.46 250.48 491.44 235.7 486.33 233.98"/>
    <polygon class="cls-2" points="650.54 316.88 649.06 342 648.79 346.6 589.61 369.38 562.5 379.82 562.5 221.87 589.61 212.9 589.61 340.61 650.54 316.88"/>
    <polygon class="cls-2" points="421.15 342 394.14 342 391.11 288 389.6 261 374.43 288 350.97 261 357.41 288 370.28 342 342.67 342 329.83 288 323.41 261 310.57 207 338.1 207 366.98 235.89 366.99 235.9 386.58 207 413.64 207 418.14 288 421.15 342"/>
    <polygon class="cls-2" points="603 180 549 198 495 180 497.3 152.41 500.46 114.53 502.5 90 504 72 594 72 596.25 99 578.75 99 578 90 529.59 90 527.76 113 549.03 113 549 130.28 526.37 130.41 523.91 161.21 549.03 169.51 583.64 157.85 582.49 144 600 144 600.68 152.12 603 180"/>
    <path class="cls-2" d="M349.06,180l-10.41-27h-119.61l-2.49,26.84-5.42,58.22-4.58,49.18-.07.76-2.87,30.86,7.79,5.87,17.48,13.16,2.97-31.46,1.74-18.43h40.84l12.9,54h27.67l-19.29-81-12.85-54-6.43-27h72.63ZM236.14,261l5.1-54h.12l2.61-27h4.36l6.55,27h.2l12.9,54h-31.84Z"/>
    <polygon class="cls-2" points="761.63 315 754.98 342 675.89 342 679.2 288 680.86 261 684.16 207 711.1 207 707.84 261 706.2 288 704.57 315 761.63 315"/>
  </g>
</svg>